# xmcd
#
# Track frame offsets: 
#        182
#        12192
#        26427
#        40832
#        53745
#        67280
#        78830
#        90275
#        104062
#        116712
#        130385
#        141142
#        155582
#        169287
#        181347
#        194277
#
# Disc length: 2756 seconds
#
# Revision: 0
# Processed by: cddbd v1.5.2PL0 Copyright (c) Steve Scherf et al.
# Submitted via: ExactAudioCopy v0.99pb4
#
DISCID=d90ac210
DTITLE=Little Esther - I Paid My Dues
DYEAR=1988
DGENRE=Blues
TTITLE0=Better Beware
TTITLE1=Hold Me
TTITLE2=Somebody New
TTITLE3=Bring My Lovin' Back To Me
TTITLE4=I Paid My Dues
TTITLE5=Sweet Lips
TTITLE6=Love Oh Love
TTITLE7=I'll Be There
TTITLE8=Street Lights
TTITLE9=Heart To Heart
TTITLE10=Tell Him That I Need Him So
TTITLE11=Summertime
TTITLE12=The Crying Blues
TTITLE13=Other Lips, Other Arms
TTITLE14=Don't Make A Fool Out Of Me
TTITLE15=Cryin' And Singin' The Blues
EXTD=
EXTT0=
EXTT1=
EXTT2=
EXTT3=
EXTT4=
EXTT5=
EXTT6=
EXTT7=
EXTT8=
EXTT9=
EXTT10=
EXTT11=
EXTT12=
EXTT13=
EXTT14=
EXTT15=
PLAYORDER=
